<svg fill="#FFF" xmlns="http://www.w3.org/2000/svg" viewBox="0 0 711.13 155.67"><path d="M124.4 98q0 13.94-5.05 24.39a48.58 48.58 0 0 1-13.63 17.21 59.1 59.1 0 0 1-19.65 10.14 78.16 78.16 0 0 1-22.91 3.38H0V2.54h62.72A82.22 82.22 0 0 1 86.6 5.92a57.83 57.83 0 0 1 19.54 10 49 49 0 0 1 13.3 16.58q5 9.93 5 23zM86.6 57a22.78 22.78 0 0 0-2.11-9.93 22.5 22.5 0 0 0-5.71-7.5A24.68 24.68 0 0 0 70.34 35a33.9 33.9 0 0 0-10.57-1.59H37.59v89.13h23.24a29.88 29.88 0 0 0 9.71-1.58 23.77 23.77 0 0 0 8.13-4.65 22.75 22.75 0 0 0 5.6-7.6 24 24 0 0 0 2.11-10.24zm45.46 96.14V2.54h37.61v150.6zM297 128.63A47.43 47.43 0 0 1 283 144a61 61 0 0 1-19.54 8.87 86 86 0 0 1-21.86 2.85 100.84 100.84 0 0 1-24.08-2.85 57 57 0 0 1-20.52-9.44 48.67 48.67 0 0 1-14.25-16.79q-5.39-10.25-5.38-25.24V55.56q0-13.94 5.17-24.29a50.77 50.77 0 0 1 13.94-17.33 60.49 60.49 0 0 1 20.14-10.45A81.37 81.37 0 0 1 240.49 0a91.53 91.53 0 0 1 22.07 2.75 64.45 64.45 0 0 1 20 8.55 45.52 45.52 0 0 1 14.37 15.1q5.49 9.31 5.48 22.39v5.49H266.9v-2.74a19.44 19.44 0 0 0-8.29-16.69 24.91 24.91 0 0 0-8-3.7 35.68 35.68 0 0 0-8.9-1.16 34.89 34.89 0 0 0-9.71 1.38 26.56 26.56 0 0 0-8.59 4.22 20.84 20.84 0 0 0-6.14 7.5 24.07 24.07 0 0 0-2.34 11v46.47q0 11.62 7.53 18.26t19.2 6.66a33.88 33.88 0 0 0 9.34-1.28 22.77 22.77 0 0 0 7.86-3.91 19 19 0 0 0 5.41-6.76 22.68 22.68 0 0 0 2-10V99.7h-30.44V71.61h66.54v34.64q0 13.09-5.37 22.38zm12.75 24.51V2.54h37.59v150.6zm132.08 0v-60h-49.21v60H355V2.54h37.61v57.87h49.21V2.54h37.59v150.6zm45.26 0V2.54H598v30.63h-73.3v28.72h61.67v30.42H524.7v30h73.71v30.84zM711.13 32.3L685.74 4.57l-41.99 38.46V2.54h-37.59v150.6h37.59V94.01l67.38-61.71z"/></svg>